<?xml version="1.0" standalone="no"?>
<!DOCTYPE svg PUBLIC "-//W3C//DTD SVG 20010904//EN"
 "http://www.w3.org/TR/2001/REC-SVG-20010904/DTD/svg10.dtd">
<svg version="1.0" xmlns="http://www.w3.org/2000/svg"
 width="581.000000pt" height="548.000000pt" viewBox="0 0 581.000000 548.000000"
 preserveAspectRatio="xMidYMid meet">

<g transform="translate(0.000000,548.000000) scale(0.100000,-0.100000)"
fill="#000000" stroke="none">
<path d="M1583 4472 c-28 -22 -45 -66 -37 -98 3 -13 20 -35 36 -49 28 -24 36
-25 148 -25 l118 0 121 -282 c67 -156 121 -286 121 -290 0 -6 -116 -193 -276
-445 l-33 -51 -80 34 c-431 187 -937 89 -1271 -246 -452 -452 -452 -1179 0
-1630 130 -130 279 -223 448 -280 607 -203 1264 125 1466 735 22 65 56 222 56
256 0 5 38 9 84 9 l84 0 30 -53 c69 -121 217 -177 353 -132 77 26 159 109 183
189 22 68 18 151 -9 208 l-18 37 70 83 c38 46 246 295 462 553 217 259 397
473 400 477 4 5 21 -37 37 -92 l31 -99 -73 -35 c-160 -76 -315 -203 -425 -349
-77 -102 -161 -275 -196 -402 -25 -92 -27 -114 -27 -290 0 -176 2 -197 28
-290 147 -534 623 -885 1170 -862 640 27 1137 571 1103 1207 -35 645 -579
1135 -1215 1096 -64 -4 -132 -8 -151 -9 l-34 -2 -54 179 -53 179 2 231 3 231
265 0 c264 0 265 0 308 -25 60 -34 95 -95 95 -165 0 -101 -70 -177 -179 -192
-78 -10 -120 -70 -94 -134 28 -68 127 -75 247 -19 115 53 190 155 215 289 28
148 -62 326 -201 395 -80 41 -135 46 -462 46 -329 0 -354 -3 -379 -49 -6 -12
-10 -121 -10 -280 l0 -261 -853 0 -854 0 -107 251 c-59 138 -110 257 -113 265
-4 12 29 14 205 14 198 0 211 1 236 21 38 30 49 64 36 105 -22 65 -12 64 -497
64 -400 0 -440 -2 -460 -18z m2085 -1144 c-116 -139 -323 -387 -460 -550 -171
-204 -254 -295 -264 -291 -8 3 -37 8 -65 12 l-51 6 -224 520 c-123 286 -227
528 -230 538 -5 16 35 17 750 17 l756 0 -212 -252z m-1243 -371 l227 -528 -25
-32 c-13 -18 -32 -47 -41 -64 l-17 -33 -84 0 c-47 0 -85 4 -85 9 0 4 -7 46
-15 92 -43 246 -171 480 -356 652 -43 41 -79 77 -79 80 0 4 53 90 117 192 73
116 120 181 124 173 4 -7 109 -251 234 -541z m-1021 198 c87 -15 199 -50 248
-76 l25 -14 -263 -415 c-289 -455 -289 -456 -235 -511 l29 -29 500 0 499 0 -9
-57 c-45 -304 -248 -575 -532 -713 -129 -63 -233 -90 -371 -97 -241 -12 -463
61 -657 216 -319 255 -439 700 -293 1087 160 426 613 687 1059 609z m3358 -14
c571 -148 880 -743 669 -1287 -149 -383 -531 -631 -941 -611 -464 22 -843 366
-911 827 -15 106 -6 270 20 375 44 170 166 368 297 481 89 77 255 178 268 163
1 -2 65 -211 142 -464 152 -504 157 -515 227 -515 44 0 85 32 92 73 4 24 -29
147 -135 496 -78 255 -139 466 -135 469 27 27 292 23 407 -7z m-2838 -253
c146 -147 244 -337 274 -530 l9 -58 -394 0 -393 0 27 44 c16 24 109 172 208
329 99 158 184 287 189 287 4 0 41 -33 80 -72z m976 -593 c66 -34 76 -121 19
-169 -68 -58 -169 -10 -169 79 0 37 16 63 53 85 39 24 59 25 97 5z"/>
</g>
</svg>
